HIERARCHY
ROOT root
{
	OFFSET	0	13.1	24.9
	CHANNELS 6  Xposition Yposition Zposition Xrotation Yrotation Zrotation
	JOINT spine_1
	{
		OFFSET	0	9.99999	0
		CHANNELS 3  Xrotation Yrotation Zrotation
		JOINT spine_2
		{
			OFFSET	0	112	-10
			CHANNELS 3  Xrotation Yrotation Zrotation
			JOINT spine_3
			{
				OFFSET	0	206.5	19.3
				CHANNELS 3  Xrotation Yrotation Zrotation
				JOINT spine_4
				{
					OFFSET	0	110.4	14.6
					CHANNELS 3  Xrotation Yrotation Zrotation
					JOINT neck_1
					{
						OFFSET	0	71.8	-50.3
						CHANNELS 3  Xrotation Yrotation Zrotation
						JOINT neck_2
						{
							OFFSET	0	86.2	-25.8
							CHANNELS 3  Xrotation Yrotation Zrotation
							JOINT head_ee
							{
								OFFSET	0	179.8	-8.7
								CHANNELS 3  Xrotation Yrotation Zrotation
								End Site
								{
									OFFSET	1	0	0
								}
							}
						}
					}
					JOINT left_clavicle
					{
						OFFSET	-43.2	22.4	-70.8
						CHANNELS 3  Xrotation Yrotation Zrotation
						JOINT left_shoulder
						{
							OFFSET	-93.9	-5.79999	48.7
							CHANNELS 3  Xrotation Yrotation Zrotation
							JOINT left_elbow
							{
								OFFSET	-291.4	-30.8	15.2
								CHANNELS 3  Xrotation Yrotation Zrotation
								JOINT left_lowarm_twist
								{
									OFFSET	-110.7	-3.89999	13.6
									CHANNELS 3  Xrotation Yrotation Zrotation
									JOINT left_hand
									{
										OFFSET	-110.7	-3.89999	13.6
										CHANNELS 3  Xrotation Yrotation Zrotation
										JOINT left_ee
										{
											OFFSET	-80.8	-5.10001	12.1
											CHANNELS 3  Xrotation Yrotation Zrotation
											End Site
											{
												OFFSET	1	0	0
											}
										}
									}
								}
							}
						}
					}
					JOINT right_clavicle
					{
						OFFSET	43.2	22.4	-70.8
						CHANNELS 3  Xrotation Yrotation Zrotation
						JOINT right_shoulder
						{
							OFFSET	93.9	-5.79999	48.7
							CHANNELS 3  Xrotation Yrotation Zrotation
							JOINT right_elbow
							{
								OFFSET	291.4	-30.8	15.2
								CHANNELS 3  Xrotation Yrotation Zrotation
								JOINT right_lowarm_twist
								{
									OFFSET	110.7	-3.89999	13.6
									CHANNELS 3  Xrotation Yrotation Zrotation
									JOINT right_hand
									{
										OFFSET	110.7	-3.89999	13.6
										CHANNELS 3  Xrotation Yrotation Zrotation
										JOINT right_ee
										{
											OFFSET	80.8	-5.10001	12.1
											CHANNELS 3  Xrotation Yrotation Zrotation
											End Site
											{
												OFFSET	1	0	0
											}
										}
									}
								}
							}
						}
					}
				}
			}
		}
	}
	JOINT left_hip
	{
		OFFSET	-82.8	-127.5	0.300001
		CHANNELS 3  Xrotation Yrotation Zrotation
		JOINT left_knee
		{
			OFFSET	-28.2	-396.7	2.2
			CHANNELS 3  Xrotation Yrotation Zrotation
			JOINT left_ankle
			{
				OFFSET	-11.7	-411.3	35.4
				CHANNELS 3  Xrotation Yrotation Zrotation
				JOINT left_toes
				{
					OFFSET	0	-60	-88.6
					CHANNELS 3  Xrotation Yrotation Zrotation
					JOINT left_foot_ee
					{
						OFFSET	-22.5	-16.5	-42.2
						CHANNELS 3  Xrotation Yrotation Zrotation
						End Site
						{
							OFFSET	1	0	0
						}
					}
				}
			}
		}
	}
	JOINT right_hip
	{
		OFFSET	82.8	-127.5	0.300001
		CHANNELS 3  Xrotation Yrotation Zrotation
		JOINT right_knee
		{
			OFFSET	28.2	-396.7	2.2
			CHANNELS 3  Xrotation Yrotation Zrotation
			JOINT right_ankle
			{
				OFFSET	11.7	-411.3	35.4
				CHANNELS 3  Xrotation Yrotation Zrotation
				JOINT right_toes
				{
					OFFSET	0	-60	-88.6
					CHANNELS 3  Xrotation Yrotation Zrotation
					JOINT right_foot_ee
					{
						OFFSET	22.5	-16.5	-42.2
						CHANNELS 3  Xrotation Yrotation Zrotation
						End Site
						{
							OFFSET	1	0	0
						}
					}
				}
			}
		}
	}
}
MOTION
Frames: 11
Frame Time: 0.02
1565.31 717.852 -817.763 162.572 -48.2394 164.133 -6.55147 0.335252 3.26541 -6.54554 0.1269 3.28011 -6.52582 -0.930033 3.14819 -6.5394 -0.421442 3.25542 7.72092 22.1901 -1.60178 10.4129 38.789 -2.36756 -0.0 0.0 -0.0 6.15287 14.6322 11.7284 -14.1252 -22.283 60.8966 0.511452 -14.2174 0.063784 -36.1542 -2.55176 3.771 0.98515 6.29821 9.1012 -0.0 0.0 -0.0 11.6008 17.1863 -23.1926 8.56868 37.8645 -52.108 2.07948 45.8443 -0.879435 -72.6034 6.87858 -5.31802 -0.0665653 1.90143 1.24978 0.0 0.0 0.0 9.71712 5.51029 -5.2476 -0.0958139 0.00393349 0.0141774 31.3447 26.3179 -4.29597 -2.93373 0.0 0.0 -0.0 0.0 -0.0 -16.6784 2.55578 5.32889 -25.8858 -0.179536 -3.93471 1.04654 6.02874 0.157718 -27.9475 0.0 0.0 0.0 0.0 0.0 
1592.48 722.708 -811.941 163.12 -48.1595 164.124 -6.53419 0.429971 3.08269 -6.52893 0.233037 3.10378 -6.50469 -0.771681 3.01542 -6.51726 -0.286008 3.09935 6.56273 21.4558 0.0789092 8.62113 36.44 0.11654 -0.0 0.0 -0.0 5.43918 14.7229 10.5454 -12.2752 -20.4545 61.7271 0.607685 -16.7535 0.0894839 -36.9711 -2.63495 3.83474 0.828107 4.9373 7.52727 -0.0 0.0 -0.0 11.4458 18.1227 -22.7884 6.85991 38.0068 -52.1275 1.78006 41.4016 -0.672703 -72.9214 6.91923 -5.3189 0.32856 2.35827 -1.20906 0.0 0.0 0.0 9.3611 5.38047 -4.08636 -1.85673 0.0719849 0.275839 31.1495 26.2781 -4.27255 -2.55324 0.0 0.0 -0.0 0.0 -0.0 -15.2779 5.9409 5.83183 -29.8098 -0.051305 -4.52315 -2.06705 5.59506 -0.313343 -26.164 0.0 0.0 0.0 0.0 0.0 
1632.4 720.771 -801.144 162.836 -48.8482 163.513 -6.4453 0.573919 2.85573 -6.44085 0.391117 2.88642 -6.41056 -0.547414 2.86092 -6.42197 -0.088915 2.91142 5.28771 20.2349 2.52309 6.65761 32.604 3.41408 -0.0 0.0 -0.0 5.11146 14.9656 10.0032 -11.0015 -20.1543 61.8603 0.719007 -19.6046 0.124226 -37.8576 -2.72626 3.90258 0.784666 3.85818 6.80966 -0.0 0.0 -0.0 11.1352 18.5805 -22.0555 4.73783 37.1574 -52.3925 1.51834 36.9459 -0.507261 -72.6308 6.88209 -5.31811 0.63674 2.7436 -3.11913 0.0 0.0 0.0 8.38884 5.00209 -3.14575 -2.74068 0.103102 0.407929 31.1941 26.6938 -4.28917 -2.31073 0.0 0.0 -0.0 0.0 -0.0 -13.1664 10.789 6.16486 -37.0212 0.288216 -5.57674 -1.65489 4.55122 -0.249525 -23.8835 0.0 0.0 0.0 0.0 0.0 
1657.1 728.851 -802.752 161.999 -48.7041 162.749 -6.31472 0.668645 2.45044 -6.31152 0.511411 2.48799 -6.28109 -0.300693 2.52213 -6.28995 0.101271 2.53796 6.56994 19.4286 4.23864 7.69705 29.2824 5.28197 -0.0 0.0 -0.0 4.87986 15.1275 9.62324 -9.17815 -19.8589 62.5484 0.877758 -23.4999 0.182577 -38.2913 -2.7713 3.93526 0.879964 3.11686 7.14779 -0.0 0.0 -0.0 10.8173 19.2296 -21.2946 1.69396 36.1043 -51.8698 1.3657 34.0777 -0.418568 -72.2144 6.82887 -5.31663 0.907556 3.30769 -4.70878 0.0 0.0 0.0 7.3694 4.43735 -0.853621 -2.53412 0.0960132 0.37702 31.1766 27.0825 -4.2982 -2.04313 0.0 0.0 -0.0 0.0 -0.0 -9.79987 19.2127 3.53357 -47.166 0.984408 -6.97071 0.575001 1.99946 0.0854312 -20.9664 0.0 0.0 0.0 0.0 0.0 
1688.78 732.854 -793.495 160.608 -49.873 161.165 -6.3103 0.827028 2.06139 -6.3082 0.694211 2.10981 -6.27623 -0.00740806 2.22103 -6.28295 0.343369 2.19435 7.78408 18.6304 6.32669 8.65007 25.624 7.6994 -0.0 0.0 -0.0 4.82741 14.7161 9.54084 -7.45378 -20.3653 62.8648 0.99963 -26.3435 0.233947 -39.6694 -2.91607 4.03681 1.00766 2.48159 7.74704 -0.0 0.0 -0.0 10.5623 20.059 -20.6617 -1.46321 34.7663 -52.0873 1.16622 30.0144 -0.312655 -70.6972 6.63504 -5.30797 0.996271 2.83336 -5.5046 0.0 0.0 0.0 5.39503 3.22414 1.17636 -2.07738 0.079943 0.308766 31.8858 27.6068 -4.39508 -2.02951 0.0 0.0 -0.0 0.0 -0.0 -3.36553 26.1918 0.0542509 -59.8768 2.1867 -8.51187 4.24765 -0.80337 0.619962 -17.7252 0.0 0.0 0.0 0.0 0.0 
1720.56 735.155 -794.369 160.615 -50.9479 161.06 -6.26345 0.737774 1.84454 -6.26177 0.618927 1.88773 -6.23628 -0.00737092 1.98655 -6.24166 0.306399 1.9628 8.53473 18.5489 6.10203 9.41456 25.4348 7.38316 -0.0 0.0 -0.0 5.04599 14.4704 9.90211 -6.36614 -20.7011 62.4488 1.10737 -28.7465 0.28378 -39.9887 -2.94996 4.05985 1.00906 2.17656 7.63432 -0.0 0.0 -0.0 10.3465 19.9037 -20.1872 -5.94955 33.0267 -51.1164 1.14208 29.4983 -0.300676 -70.1439 6.56438 -5.30353 1.0198 2.86787 -5.64915 0.0 0.0 0.0 3.56144 3.01722 2.54347 -1.41665 0.0557332 0.210256 32.5896 27.8972 -4.48421 -1.93786 0.0 0.0 -0.0 0.0 -0.0 0.195052 29.1012 -2.34063 -61.9568 2.41495 -8.73743 4.22989 -0.745817 0.617483 -17.6069 0.0 0.0 0.0 0.0 0.0 
1744.76 738.776 -791.786 161.391 -50.9965 162.353 -6.23052 0.648044 1.60323 -6.22925 0.544727 1.6412 -6.2098 0.000655805 1.72922 -6.21387 0.273705 1.70743 8.45858 18.574 6.23627 9.33041 25.3799 7.55058 -0.0 0.0 -0.0 5.13622 14.2319 10.054 -5.31321 -21.0388 62.0828 1.19859 -30.6983 0.329012 -39.8936 -2.93985 4.05301 1.00028 2.00796 7.5078 -0.0 0.0 -0.0 10.1239 19.2716 -19.7318 -8.16858 31.9801 -50.8208 1.11307 28.8708 -0.28653 -70.1229 6.56171 -5.30334 1.04258 2.86655 -5.80358 0.0 0.0 0.0 2.9074 3.40385 2.76081 -1.19942 0.0475253 0.177929 32.9673 27.816 -4.52433 -1.84283 0.0 0.0 -0.0 0.0 -0.0 2.7333 29.6782 -3.09388 -64.029 2.65039 -8.95385 4.37701 -0.655162 0.638815 -17.492 0.0 0.0 0.0 0.0 0.0 
1766.21 739.926 -790.943 162.648 -51.1343 163.922 -5.88464 0.52202 1.25941 -5.88386 0.440829 1.29007 -5.87164 0.0205436 1.36314 -5.87416 0.235549 1.3428 8.48419 18.6065 6.27832 9.35715 25.3875 7.59939 -0.0 0.0 -0.0 5.27115 13.9368 10.282 -3.92969 -21.4981 61.65 1.29786 -32.7363 0.381212 -39.7575 -2.92541 4.04319 0.997295 1.82584 7.41467 -0.0 0.0 -0.0 9.88577 18.7723 -19.2326 -9.75284 31.1794 -50.6731 1.08956 28.3565 -0.275268 -70.1436 6.56435 -5.30352 1.07559 2.86671 -6.02656 0.0 0.0 0.0 2.02867 3.93782 3.00784 -1.25027 0.0494573 0.185493 33.3453 27.4376 -4.55476 -1.72583 0.0 0.0 -0.0 0.0 -0.0 6.08662 30.1422 -3.96076 -65.7399 2.85062 -9.12608 4.64474 -0.336643 0.677859 -17.3352 0.0 0.0 0.0 0.0 0.0 
1791.13 749.406 -790.178 162.93 -51.2734 164.845 -5.85678 0.431653 1.03983 -5.85626 0.364615 1.06518 -5.84792 0.0180184 1.12571 -5.84964 0.195566 1.10874 8.46452 18.6051 6.32221 9.33371 25.3515 7.6541 -0.0 0.0 -0.0 5.29242 13.859 10.3186 -3.19604 -21.8245 60.9858 1.42303 -35.179 0.451145 -39.5653 -2.90506 4.02927 1.00014 1.56944 7.33055 -0.0 0.0 -0.0 9.71902 18.1645 -18.8997 -11.2319 30.2918 -50.6726 1.0626 27.7608 -0.262589 -70.1681 6.56747 -5.30374 1.11939 2.86142 -6.32484 0.0 0.0 0.0 1.06352 4.56611 3.22282 -1.34947 0.0532079 0.200255 33.8661 26.6843 -4.58911 -1.60845 0.0 0.0 -0.0 0.0 -0.0 10.7181 30.1726 -5.66977 -68.1774 3.1446 -9.36106 5.01051 0.116964 0.731252 -17.1132 0.0 0.0 0.0 0.0 0.0 
1816.62 762.986 -782.56 163.199 -51.3568 165.864 -5.80268 0.304882 0.726185 -5.80243 0.258056 0.744113 -5.79832 0.0164404 0.787415 -5.79916 0.140588 0.774938 8.45492 18.6223 6.38343 9.32151 25.3276 7.72876 -0.0 0.0 -0.0 5.4623 13.8152 10.6027 -2.15651 -22.3178 60.522 1.608 -38.5363 0.562141 -39.2873 -2.87568 4.009 1.00467 1.22809 7.22333 -0.0 0.0 -0.0 9.52473 17.4688 -18.5101 -13.1029 29.162 -50.6842 1.02435 26.9041 -0.245024 -70.2153 6.5735 -5.30414 1.1826 2.84877 -6.75764 0.0 0.0 0.0 -0.316507 5.46037 3.48764 -1.49345 0.0586054 0.221693 34.5636 25.6094 -4.63286 -1.44083 0.0 0.0 -0.0 0.0 -0.0 16.9978 29.7454 -8.09696 -71.5508 3.56748 -9.66534 5.48964 0.763488 0.801363 -16.8064 0.0 0.0 0.0 0.0 0.0 
1830.67 764.588 -784.994 163.829 -50.3046 166.694 -5.82485 0.243785 0.702163 -5.8246 0.198611 0.716252 -5.82144 -0.0318447 0.742595 -5.8222 0.0858307 0.738305 8.40603 18.647 6.49564 9.26686 25.283 7.86741 -0.0 0.0 -0.0 5.75776 13.752 11.0984 -0.377427 -22.1874 59.9901 1.74521 -40.8407 0.649789 -39.0731 -2.85313 3.99329 0.982445 1.19997 7.06284 -0.0 0.0 -0.0 9.25756 16.9008 -17.9511 -15.0061 28.2826 -50.1792 0.972622 25.7247 -0.222093 -70.2841 6.58228 -5.30472 1.20879 2.84286 -6.9374 0.0 0.0 0.0 -1.02228 6.78936 4.00598 -1.64637 0.0642793 0.244475 34.7567 25.2535 -4.64326 -1.36929 0.0 0.0 -0.0 0.0 -0.0 19.3364 28.4214 -8.44893 -70.6132 3.44816 -9.58326 6.14846 1.68913 0.898058 -16.7463 0.0 0.0 0.0 0.0 0.0 
